<?xml version="1.0" standalone="no"?>
<!DOCTYPE svg PUBLIC "-//W3C//DTD SVG 20010904//EN"
 "http://www.w3.org/TR/2001/REC-SVG-20010904/DTD/svg10.dtd">
<svg version="1.0" xmlns="http://www.w3.org/2000/svg"
 width="512.000000pt" height="512.000000pt" viewBox="0 0 512.000000 512.000000"
 preserveAspectRatio="xMidYMid meet">

<g transform="translate(0.000000,512.000000) scale(0.100000,-0.100000)"
fill="#000000" stroke="none">
<path d="M1280 5106 c-132 -35 -233 -162 -247 -308 -7 -79 13 -156 60 -226
l34 -49 -428 -1241 c-236 -683 -436 -1276 -445 -1319 -25 -114 -23 -320 4
-440 40 -175 119 -334 236 -474 77 -94 124 -119 218 -119 l68 0 0 -30 c0 -28
-20 -43 -359 -269 -197 -132 -368 -252 -378 -268 -87 -123 -26 -309 116 -352
56 -16 1578 -16 1634 1 61 18 125 83 147 148 18 54 19 55 87 82 157 61 156 61
908 68 511 4 700 9 728 19 66 22 167 69 385 183 238 124 285 161 333 263 16
33 32 81 35 108 l7 47 141 0 c165 0 197 10 263 82 198 217 303 501 290 783 -3
61 -11 135 -17 165 -7 30 -202 606 -433 1279 -317 924 -417 1226 -407 1229 32
11 112 98 137 150 38 79 44 194 12 277 -28 75 -102 155 -178 192 l-56 28 -815
3 c-610 2 -821 0 -837 -9 -43 -23 -49 -95 -11 -127 11 -8 219 -12 819 -14
l804 -3 42 -24 c112 -64 135 -201 50 -298 -17 -20 -46 -42 -64 -49 -27 -12
-279 -14 -1433 -14 -1379 0 -1401 0 -1440 20 -106 54 -136 207 -58 296 63 72
40 69 575 72 l482 3 21 26 c27 34 25 69 -5 98 l-24 25 -478 -1 c-344 0 -491
-4 -523 -13z m2843 -758 c38 -112 257 -747 264 -763 4 -13 -170 -15 -1365 -15
l-1369 0 -56 163 c-30 89 -96 280 -146 425 l-90 262 1369 0 1368 0 25 -72z
m-2489 -1194 c218 -633 403 -1182 411 -1220 8 -38 15 -97 15 -130 l0 -62 -107
-4 c-128 -5 -185 -23 -358 -108 -148 -73 -261 -158 -430 -321 -121 -118 -133
-126 -178 -132 -54 -8 -113 -35 -141 -66 -16 -18 -30 -21 -102 -21 l-82 0 -45
52 c-95 114 -158 231 -197 369 -30 103 -38 306 -16 409 21 103 818 2414 827
2398 3 -7 185 -531 403 -1164z m3034 -387 c122 -354 224 -651 228 -660 6 -16
-26 -17 -407 -17 -370 0 -414 -2 -431 -17 -25 -23 -24 -87 2 -113 19 -19 33
-20 454 -20 l434 0 7 -47 c10 -67 7 -239 -5 -303 -32 -171 -114 -339 -223
-457 l-40 -43 -146 0 -146 0 -30 51 c-39 67 -103 124 -173 157 -50 24 -69 27
-162 27 l-105 0 -185 -89 c-280 -135 -257 -129 -525 -134 -255 -5 -389 6 -535
42 -70 17 -90 25 -75 31 170 64 235 141 243 290 3 64 0 91 -17 136 -41 107
-137 185 -244 196 -44 4 -213 -12 -333 -33 l-31 -6 -7 74 c-4 40 -9 81 -12 91
-5 16 38 17 810 17 803 0 816 0 836 20 25 25 27 86 3 112 -15 17 -55 18 -853
18 l-836 0 -222 643 c-122 354 -224 651 -228 660 -6 16 93 17 1363 17 l1369 0
222 -643z m-2058 -1139 c33 -17 51 -35 68 -68 27 -54 28 -92 3 -147 -23 -49
-51 -65 -193 -112 -117 -39 -148 -67 -148 -137 0 -36 6 -51 33 -79 29 -32 42
-37 152 -60 347 -71 698 -100 892 -75 107 15 121 20 348 128 221 106 264 117
341 87 164 -62 213 -261 95 -382 -50 -52 -538 -299 -620 -313 -31 -6 -317 -10
-676 -10 -682 0 -711 -2 -895 -60 l-95 -31 -367 368 -368 368 78 78 c186 189
341 294 548 373 58 22 95 28 234 36 91 5 237 19 325 32 205 30 193 30 245 4z
m-1188 -986 c409 -408 404 -401 355 -458 -18 -20 -32 -27 -57 -26 -31 1 -69
36 -412 379 -406 406 -401 401 -357 457 15 20 29 26 57 26 35 0 55 -18 414
-378z m38 -484 c0 -5 -278 -8 -617 -8 -664 0 -656 0 -681 52 -25 53 -12 64
360 313 l353 235 292 -292 c161 -161 293 -296 293 -300z"/>
<path d="M2573 3114 c-77 -28 -143 -122 -143 -207 0 -35 40 -77 73 -77 35 0
73 34 81 72 18 89 118 95 132 7 12 -73 82 -102 129 -54 69 68 -14 230 -136
265 -46 13 -86 11 -136 -6z"/>
<path d="M4001 3098 c-42 -15 -50 -37 -51 -129 0 -105 19 -139 76 -139 60 0
74 25 74 131 0 50 -4 99 -10 109 -13 25 -59 39 -89 28z"/>
<path d="M3120 2960 c-13 -13 -20 -33 -20 -57 0 -30 7 -43 41 -74 74 -68 199
-97 301 -69 52 15 129 69 151 108 17 28 17 37 7 63 -24 57 -77 65 -135 19 -78
-62 -158 -62 -229 0 -40 36 -86 40 -116 10z"/>
</g>
</svg>
